<?xml version="1.0" encoding="UTF-8" standalone="no"?>
<!-- Created with Inkscape (http://www.inkscape.org/) -->

<svg
   width="14.94643in"
   height="5.2109237in"
   viewBox="0 0 379.63932 132.35747"
   version="1.1"
   id="svg1"
   xml:space="preserve"
   inkscape:version="1.4 (86a8ad7, 2024-10-11)"
   sodipodi:docname="Color logo - no background.svg"
   xmlns:inkscape="http://www.inkscape.org/namespaces/inkscape"
   xmlns:sodipodi="http://sodipodi.sourceforge.net/DTD/sodipodi-0.dtd"
   xmlns:xlink="http://www.w3.org/1999/xlink"
   xmlns="http://www.w3.org/2000/svg"
   xmlns:svg="http://www.w3.org/2000/svg"><sodipodi:namedview
     id="namedview1"
     pagecolor="#ffffff"
     bordercolor="#000000"
     borderopacity="0.25"
     inkscape:showpageshadow="2"
     inkscape:pageopacity="0.0"
     inkscape:pagecheckerboard="0"
     inkscape:deskcolor="#d1d1d1"
     inkscape:document-units="mm"
     inkscape:zoom="0.5"
     inkscape:cx="1007"
     inkscape:cy="-59"
     inkscape:window-width="1920"
     inkscape:window-height="1017"
     inkscape:window-x="1912"
     inkscape:window-y="-6"
     inkscape:window-maximized="1"
     inkscape:current-layer="layer1" /><defs
     id="defs1"><linearGradient
       id="linearGradient25"
       inkscape:collect="always"><stop
         style="stop-color:#b98847;stop-opacity:1;"
         offset="0"
         id="stop24" /><stop
         style="stop-color:#b98847;stop-opacity:0;"
         offset="0.23916534"
         id="stop25" /></linearGradient><linearGradient
       id="linearGradient22"
       inkscape:collect="always"><stop
         style="stop-color:#b98847;stop-opacity:1;"
         offset="0"
         id="stop22" /><stop
         style="stop-color:#b98847;stop-opacity:0;"
         offset="1"
         id="stop23" /></linearGradient><linearGradient
       id="swatch20"
       inkscape:swatch="solid"><stop
         style="stop-color:#b98847;stop-opacity:1;"
         offset="0"
         id="stop20" /></linearGradient><linearGradient
       id="swatch2"
       inkscape:swatch="solid"><stop
         style="stop-color:#ffffff;stop-opacity:1;"
         offset="0"
         id="stop2" /></linearGradient><linearGradient
       id="swatch1"
       inkscape:swatch="solid"><stop
         style="stop-color:#ff0000;stop-opacity:1;"
         offset="0"
         id="stop1" /></linearGradient><linearGradient
       id="swatch1948"
       inkscape:swatch="solid"><stop
         style="stop-color:#4f6df5;stop-opacity:1;"
         offset="0"
         id="stop1948" /></linearGradient><linearGradient
       id="swatch1928"
       inkscape:swatch="solid"><stop
         style="stop-color:#4f6df5;stop-opacity:1;"
         offset="0"
         id="stop1928" /></linearGradient><linearGradient
       id="swatch1916"
       inkscape:swatch="solid"><stop
         style="stop-color:#4f6df5;stop-opacity:1;"
         offset="0"
         id="stop1916" /></linearGradient><clipPath
       clipPathUnits="userSpaceOnUse"
       id="clipPath10"><path
         id="path11"
         style="fill:#ff0000;fill-opacity:1;fill-rule:nonzero;stroke:none;stroke-width:0.264583"
         d="M -10.058818,48.292896 V 75.291247 H 20.113501 V 48.292896 Z m 24.933362,0.684713 c 0.398423,7.94e-4 0.590997,0.482851 0.103353,0.93586 -0.328189,0.30488 -0.671016,0.593664 -1.017509,0.877467 -0.471098,0.381082 -0.950168,0.75624 -1.463993,1.078487 -0.784522,0.492014 -1.244183,-0.313402 -0.464055,-0.812356 0.46853,-0.299659 0.907613,-0.643408 1.339454,-0.993219 0.329415,-0.270698 0.656443,-0.544838 0.968416,-0.83561 0.190524,-0.177578 0.37843,-0.250915 0.534334,-0.250629 z M -2.0360514,71.937447 c 0.3983782,5.29e-4 0.5910258,0.481814 0.1038696,0.935344 -0.3161904,0.294368 -0.6371535,0.583877 -0.9746175,0.853694 -0.7232806,0.578287 -1.3485328,-0.04059 -0.6614583,-0.661458 0.031677,-0.02863 0.062483,-0.05873 0.095085,-0.0863 0.4726996,-0.39973 -0.2505453,0.226256 0.3028238,-0.248047 0.204932,-0.175649 0.4030711,-0.358624 0.6004802,-0.542602 0.1905331,-0.17757 0.3779304,-0.250809 0.5338176,-0.250632 z" /></clipPath><clipPath
       clipPathUnits="userSpaceOnUse"
       id="clipPath103"><path
         id="path104"
         style="fill:#ff0000;fill-opacity:1;fill-rule:nonzero;stroke:none;stroke-width:0.264583"
         d="M -0.02842204,0.00488744 V 30.005124 H 29.971296 V 0.00488744 Z M 23.104016,1.4099696 c 5.29e-4,5.82e-4 1.58e-4,0.00201 -5.29e-4,0.00517 -0.01053,0.049119 -0.02204,0.098267 -0.03307,0.1472776 l 2.306836,0.3844727 c -0.07026,0.3520787 -0.259425,0.6535436 -0.454235,0.9482627 -0.11932,0.1754899 -0.24113,0.3490523 -0.37052,0.517281 -0.08493,0.1108634 -0.163916,0.2264445 -0.241846,0.3420981 -0.09026,0.1433655 -0.196691,0.2753521 -0.303341,0.4066934 -0.04848,0.065296 -0.09739,0.1299623 -0.14366,0.1968871 L 21.957304,3.0031536 c 0.07711,-0.1074994 0.154268,-0.2147575 0.236678,-0.3183268 0.06328,-0.07733 0.128037,-0.1542667 0.179317,-0.2402954 0.106185,-0.1562245 0.213014,-0.3124769 0.328662,-0.4619874 0.09522,-0.122247 0.181988,-0.2499563 0.270268,-0.3772381 0.02816,-0.042541 0.0587,-0.083888 0.08578,-0.1271238 0.01204,-0.019211 0.04228,-0.072201 0.04599,-0.068213 z M 6.2874715,24.916028 7.8424154,26.662693 c -0.066244,0.05898 -0.1326026,0.117819 -0.1984375,0.17725 -0.1309524,0.109339 -0.2646532,0.21491 -0.3953246,0.324527 -0.080473,0.07546 -0.1591566,0.15376 -0.2402956,0.228409 -0.00604,0.0075 -0.024075,0.028 -0.07183,0.08062 -0.021937,0.04579 -0.043502,0.09227 -0.067696,0.135909 -0.00106,0.0019 -5.556e-4,-0.0086 -0.00156,-0.0067 -0.00565,0.01093 -0.00403,0.04312 -0.01292,0.03462 -0.00988,-0.0094 0.00446,-0.02683 0.00672,-0.04031 L 5.5526212,27.334999 c -0.00497,0.0011 -0.00856,-7.4e-5 -0.011369,-0.0021 l -0.973584,-0.194837 c 0.056974,-0.270965 0.1802591,-0.518763 0.3033406,-0.764294 0.1025266,-0.215397 0.2674509,-0.398574 0.412378,-0.561724 0.1154351,-0.120097 0.2383816,-0.232703 0.3591512,-0.347265 0.1607881,-0.147207 0.3347159,-0.279244 0.5017781,-0.419095 0.04594,-0.04511 0.095069,-0.08691 0.1431438,-0.129709 z m 0.7338055,2.460831 c -0.027637,0.02876 -0.010173,0.01035 -0.0062,0.0072 0.00323,-0.0038 0.00421,-0.0047 0.0062,-0.0072 z m -0.047542,0.02585 c 0.0037,-0.0067 -0.00829,0.01312 -0.012401,0.01963 -0.00228,0.0046 -0.00446,0.0094 -0.00672,0.01394 z m -0.026872,0.05529 c 0.00185,-0.0034 -0.00122,2.23e-4 -0.00517,0.0052 -8.996e-4,0.0019 -0.00169,0.0038 -0.00259,0.0057 0.00303,-0.004 0.00631,-0.0082 0.00775,-0.01085 z" /></clipPath><linearGradient
       inkscape:collect="always"
       xlink:href="#linearGradient22"
       id="linearGradient23"
       x1="109.13811"
       y1="72.614998"
       x2="409.62494"
       y2="72.614998"
       gradientUnits="userSpaceOnUse" /><linearGradient
       inkscape:collect="always"
       xlink:href="#linearGradient25"
       id="linearGradient24"
       x1="90.568092"
       y1="29.83729"
       x2="333.85873"
       y2="29.83729"
       gradientUnits="userSpaceOnUse" /></defs><g
     inkscape:label="Layer 1"
     inkscape:groupmode="layer"
     id="layer1"
     style="display:inline"
     transform="translate(-0.10600833,0.43752494)"><text
       xml:space="preserve"
       style="font-size:9.52347px;text-align:start;writing-mode:lr-tb;direction:ltr;text-anchor:start;display:inline;fill:#4660da;fill-opacity:1;stroke-width:0.793623"
       x="229.05334"
       y="305.49625"
       id="text1900"
       transform="scale(0.99983407,1.000166)"><tspan
         sodipodi:role="line"
         style="font-style:normal;font-variant:normal;font-weight:normal;font-stretch:normal;font-size:9.52347px;font-family:Dubai;-inkscape-font-specification:'Dubai, Normal';font-variant-ligatures:normal;font-variant-caps:normal;font-variant-numeric:normal;font-variant-east-asian:normal;fill:#4660da;fill-opacity:1;stroke-width:0.793623"
         x="229.05334"
         y="305.49625"
         id="tspan1901" /></text><text
       xml:space="preserve"
       style="font-style:normal;font-variant:normal;font-weight:normal;font-stretch:normal;font-size:38.0939px;font-family:RomanC;-inkscape-font-specification:'RomanC, Normal';font-variant-ligatures:normal;font-variant-caps:normal;font-variant-numeric:normal;font-variant-east-asian:normal;text-align:start;writing-mode:lr-tb;direction:ltr;text-anchor:start;fill:#b98847;fill-opacity:1;stroke:#b98847;stroke-width:0.793623;stroke-opacity:1"
       x="19.263115"
       y="47.422871"
       id="text1910"
       transform="scale(0.99983407,1.000166)"><tspan
         sodipodi:role="line"
         id="tspan1910"
         style="font-style:normal;font-variant:normal;font-weight:normal;font-stretch:normal;font-size:38.0939px;font-family:RomanC;-inkscape-font-specification:'RomanC, Normal';font-variant-ligatures:normal;font-variant-caps:normal;font-variant-numeric:normal;font-variant-east-asian:normal;fill:#b98847;fill-opacity:1;stroke:#b98847;stroke-width:0.793623;stroke-opacity:1"
         x="19.263115"
         y="47.422871">P</tspan></text><text
       xml:space="preserve"
       style="font-style:normal;font-variant:normal;font-weight:normal;font-stretch:normal;font-size:38.0939px;font-family:RomanC;-inkscape-font-specification:'RomanC, Normal';font-variant-ligatures:normal;font-variant-caps:normal;font-variant-numeric:normal;font-variant-east-asian:normal;text-align:start;writing-mode:lr-tb;direction:ltr;text-anchor:start;display:inline;fill:#b98847;fill-opacity:1;stroke:#b98847;stroke-width:0.793623;stroke-opacity:1"
       x="49.479313"
       y="76.512428"
       id="text1910-5"
       transform="scale(0.99983407,1.000166)"><tspan
         sodipodi:role="line"
         id="tspan1911"
         x="49.479313"
         y="76.512428"
         style="fill:#b98847;fill-opacity:1;stroke:#b98847;stroke-width:0.793623;stroke-opacity:1">E</tspan></text><text
       xml:space="preserve"
       style="font-style:normal;font-variant:normal;font-weight:normal;font-stretch:normal;font-size:37.7228px;font-family:Verdana;-inkscape-font-specification:'Verdana, Normal';font-variant-ligatures:normal;font-variant-caps:normal;font-variant-numeric:normal;font-variant-east-asian:normal;text-align:start;writing-mode:lr-tb;direction:ltr;text-anchor:start;fill:#b98847;fill-opacity:1;stroke:#b98847;stroke-width:0.787256;stroke-dasharray:none;stroke-opacity:1"
       x="107.89448"
       y="86.623543"
       id="text1950"
       transform="scale(0.98982856,1.010276)"><tspan
         sodipodi:role="line"
         style="font-style:normal;font-variant:normal;font-weight:normal;font-stretch:normal;font-size:37.7228px;font-family:Verdana;-inkscape-font-specification:'Verdana, Normal';font-variant-ligatures:normal;font-variant-caps:normal;font-variant-numeric:normal;font-variant-east-asian:normal;fill:#b98847;fill-opacity:1;stroke:#b98847;stroke-width:0.787256;stroke-dasharray:none;stroke-opacity:1"
         x="107.89448"
         y="86.623543"
         id="tspan1951">ENGINEERING</tspan></text><text
       xml:space="preserve"
       style="font-style:normal;font-variant:normal;font-weight:normal;font-stretch:normal;font-size:67.1442px;font-family:Verdana;-inkscape-font-specification:'Verdana, Normal';font-variant-ligatures:normal;font-variant-caps:normal;font-variant-numeric:normal;font-variant-east-asian:normal;text-align:start;writing-mode:lr-tb;direction:ltr;text-anchor:start;display:inline;fill:#b98847;fill-opacity:1;stroke:#b98847;stroke-width:1.40103;stroke-dasharray:none;stroke-opacity:1"
       x="86.350822"
       y="55.065544"
       id="text1950-8"
       transform="scale(1.2135851,0.82400483)"><tspan
         sodipodi:role="line"
         id="tspan1950-8"
         style="font-style:normal;font-variant:normal;font-weight:normal;font-stretch:normal;font-size:67.1442px;font-family:Verdana;-inkscape-font-specification:'Verdana, Normal';font-variant-ligatures:normal;font-variant-caps:normal;font-variant-numeric:normal;font-variant-east-asian:normal;fill:#b98847;fill-opacity:1;stroke:#b98847;stroke-width:1.40104;stroke-opacity:1"
         x="86.350822"
         y="55.065544">PHASE</tspan><tspan
         sodipodi:role="line"
         style="font-style:normal;font-variant:normal;font-weight:normal;font-stretch:normal;font-size:67.1442px;font-family:Verdana;-inkscape-font-specification:'Verdana, Normal';font-variant-ligatures:normal;font-variant-caps:normal;font-variant-numeric:normal;font-variant-east-asian:normal;fill:#b98847;fill-opacity:1;stroke:#b98847;stroke-width:1.40104;stroke-opacity:1"
         x="86.350822"
         y="138.9958"
         id="tspan1951-2" /></text><path
       style="display:inline;fill:none;stroke-width:0.794869"
       d="m 26.64639,131.91994 66.2232,-1.19515"
       id="path1" /><path
       style="display:inline;fill:none;stroke-width:0.794869"
       d="M 56.856456,130.72479 103.793,130.21259"
       id="path2" /><path
       style="fill:none;stroke-width:0.794869"
       d="m 41.495405,130.55406 53.593,0.17073"
       id="path3" /><rect
       style="display:inline;fill:#b98847;fill-opacity:1;stroke:#b98847;stroke-width:0.900926;stroke-opacity:1"
       id="rect5"
       width="126.494"
       x="-50.791054"
       y="70.476562"
       rx="9.1794006e-17"
       ry="9.7000923e-17"
       transform="matrix(0.5890952,-0.80806364,0.48857568,0.87252152,0,0)"
       height="0.5" /><circle
       style="display:inline;opacity:1;fill:none;stroke:#b98847;stroke-width:0.289828;stroke-opacity:1"
       id="path5"
       cx="14.971437"
       cy="15.005018"
       r="14.855086"
       clip-path="url(#clipPath103)"
       transform="matrix(2.9990222,0,0,3.0000176,0.19124666,4.2101584)" /></g></svg>
