<?xml version="1.0" encoding="UTF-8" standalone="no"?>
<!-- Created with Inkscape (http://www.inkscape.org/) -->

<svg
   width="32"
   height="32"
   viewBox="0 0 30.303031 30.303024"
   version="1.1"
   id="svg1"
   xml:space="preserve"
   sodipodi:docname="favicon.svg"
   inkscape:export-filename="jaime strip3.PNG"
   inkscape:export-xdpi="500"
   inkscape:export-ydpi="500"
   inkscape:version="1.4 (86a8ad7, 2024-10-11)"
   xmlns:inkscape="http://www.inkscape.org/namespaces/inkscape"
   xmlns:sodipodi="http://sodipodi.sourceforge.net/DTD/sodipodi-0.dtd"
   xmlns="http://www.w3.org/2000/svg"
   xmlns:svg="http://www.w3.org/2000/svg"><sodipodi:namedview
     id="namedview1"
     pagecolor="#ffffff"
     bordercolor="#000000"
     borderopacity="1"
     inkscape:showpageshadow="2"
     inkscape:pageopacity="0.0"
     inkscape:pagecheckerboard="0"
     inkscape:deskcolor="#00005d"
     inkscape:export-bgcolor="#000000ff"
     inkscape:zoom="8.0000004"
     inkscape:cx="4.8749998"
     inkscape:cy="4.4374998"
     inkscape:window-width="1920"
     inkscape:window-height="1017"
     inkscape:window-x="1912"
     inkscape:window-y="-6"
     inkscape:window-maximized="1"
     inkscape:current-layer="layer1" /><defs
     id="defs1"><linearGradient
       id="swatch20"><stop
         style="stop-color:#b98847;stop-opacity:1;"
         offset="0"
         id="stop20" /></linearGradient><linearGradient
       id="swatch2"><stop
         style="stop-color:#ffffff;stop-opacity:1;"
         offset="0"
         id="stop2" /></linearGradient><linearGradient
       id="swatch1"><stop
         style="stop-color:#ff0000;stop-opacity:1;"
         offset="0"
         id="stop1" /></linearGradient><linearGradient
       id="swatch1948"><stop
         style="stop-color:#4f6df5;stop-opacity:1;"
         offset="0"
         id="stop1948" /></linearGradient><linearGradient
       id="swatch1928"><stop
         style="stop-color:#4f6df5;stop-opacity:1;"
         offset="0"
         id="stop1928" /></linearGradient><linearGradient
       id="swatch1916"><stop
         style="stop-color:#4f6df5;stop-opacity:1;"
         offset="0"
         id="stop1916" /></linearGradient><clipPath
       clipPathUnits="userSpaceOnUse"
       id="clipPath103"><path
         id="path104"
         style="fill:#ff0000;fill-opacity:1;fill-rule:nonzero;stroke:none;stroke-width:0.264583"
         d="M -0.02842204,0.00488744 V 30.005124 H 29.971296 V 0.00488744 Z M 23.104016,1.4099696 c 5.29e-4,5.82e-4 1.58e-4,0.00201 -5.29e-4,0.00517 -0.01053,0.049119 -0.02204,0.098267 -0.03307,0.1472776 l 2.306836,0.3844727 c -0.07026,0.3520787 -0.259425,0.6535436 -0.454235,0.9482627 -0.11932,0.1754899 -0.24113,0.3490523 -0.37052,0.517281 -0.08493,0.1108634 -0.163916,0.2264445 -0.241846,0.3420981 -0.09026,0.1433655 -0.196691,0.2753521 -0.303341,0.4066934 -0.04848,0.065296 -0.09739,0.1299623 -0.14366,0.1968871 L 21.957304,3.0031536 c 0.07711,-0.1074994 0.154268,-0.2147575 0.236678,-0.3183268 0.06328,-0.07733 0.128037,-0.1542667 0.179317,-0.2402954 0.106185,-0.1562245 0.213014,-0.3124769 0.328662,-0.4619874 0.09522,-0.122247 0.181988,-0.2499563 0.270268,-0.3772381 0.02816,-0.042541 0.0587,-0.083888 0.08578,-0.1271238 0.01204,-0.019211 0.04228,-0.072201 0.04599,-0.068213 z M 6.2874715,24.916028 7.8424154,26.662693 c -0.066244,0.05898 -0.1326026,0.117819 -0.1984375,0.17725 -0.1309524,0.109339 -0.2646532,0.21491 -0.3953246,0.324527 -0.080473,0.07546 -0.1591566,0.15376 -0.2402956,0.228409 -0.00604,0.0075 -0.024075,0.028 -0.07183,0.08062 -0.021937,0.04579 -0.043502,0.09227 -0.067696,0.135909 -0.00106,0.0019 -5.556e-4,-0.0086 -0.00156,-0.0067 -0.00565,0.01093 -0.00403,0.04312 -0.01292,0.03462 -0.00988,-0.0094 0.00446,-0.02683 0.00672,-0.04031 L 5.5526212,27.334999 c -0.00497,0.0011 -0.00856,-7.4e-5 -0.011369,-0.0021 l -0.973584,-0.194837 c 0.056974,-0.270965 0.1802591,-0.518763 0.3033406,-0.764294 0.1025266,-0.215397 0.2674509,-0.398574 0.412378,-0.561724 0.1154351,-0.120097 0.2383816,-0.232703 0.3591512,-0.347265 0.1607881,-0.147207 0.3347159,-0.279244 0.5017781,-0.419095 0.04594,-0.04511 0.095069,-0.08691 0.1431438,-0.129709 z m 0.7338055,2.460831 c -0.027637,0.02876 -0.010173,0.01035 -0.0062,0.0072 0.00323,-0.0038 0.00421,-0.0047 0.0062,-0.0072 z m -0.047542,0.02585 c 0.0037,-0.0067 -0.00829,0.01312 -0.012401,0.01963 -0.00228,0.0046 -0.00446,0.0094 -0.00672,0.01394 z m -0.026872,0.05529 c 0.00185,-0.0034 -0.00122,2.23e-4 -0.00517,0.0052 -8.996e-4,0.0019 -0.00169,0.0038 -0.00259,0.0057 0.00303,-0.004 0.00631,-0.0082 0.00775,-0.01085 z" /></clipPath></defs><g
     id="layer1"
     style="display:inline"
     transform="translate(-7.5192916,-23.38525)"><text
       xml:space="preserve"
       style="font-style:normal;font-variant:normal;font-weight:normal;font-stretch:normal;font-size:10.0388px;font-family:RomanC;-inkscape-font-specification:'RomanC, Normal';font-variant-ligatures:normal;font-variant-caps:normal;font-variant-numeric:normal;font-variant-east-asian:normal;text-align:start;writing-mode:lr-tb;direction:ltr;text-anchor:start;display:inline;fill:#b98847;fill-opacity:1;stroke:#b98847;stroke-width:0.413869;stroke-dasharray:none;stroke-opacity:1"
       x="15.700406"
       y="38.045715"
       id="text1910-55"
       transform="scale(0.99983403,1.000166)"><tspan
         id="tspan1910-1"
         style="font-style:normal;font-variant:normal;font-weight:normal;font-stretch:normal;font-size:10.0388px;font-family:RomanC;-inkscape-font-specification:'RomanC, Normal';font-variant-ligatures:normal;font-variant-caps:normal;font-variant-numeric:normal;font-variant-east-asian:normal;fill:#b98847;fill-opacity:1;stroke:#b98847;stroke-width:0.413869;stroke-dasharray:none;stroke-opacity:1"
         x="15.700406"
         y="38.045715">P</tspan></text><text
       xml:space="preserve"
       style="font-style:normal;font-variant:normal;font-weight:normal;font-stretch:normal;font-size:10.0388px;font-family:RomanC;-inkscape-font-specification:'RomanC, Normal';font-variant-ligatures:normal;font-variant-caps:normal;font-variant-numeric:normal;font-variant-east-asian:normal;text-align:start;writing-mode:lr-tb;direction:ltr;text-anchor:start;display:inline;fill:#b98847;fill-opacity:1;stroke:#b98847;stroke-width:0.413869;stroke-dasharray:none;stroke-opacity:1"
       x="23.663168"
       y="45.711575"
       id="text1910-5-7"
       transform="scale(0.99983403,1.000166)"><tspan
         id="tspan1911-1"
         x="23.663168"
         y="45.711575"
         style="fill:#b98847;fill-opacity:1;stroke:#b98847;stroke-width:0.413869;stroke-dasharray:none;stroke-opacity:1">E</tspan></text><rect
       style="display:inline;fill:#ffffff;fill-opacity:1;stroke:#b98847;stroke-width:0.723564;stroke-dasharray:none;stroke-opacity:1"
       id="rect5-8"
       width="33.33448"
       x="-15.677105"
       y="45.099098"
       rx="2.4190121e-17"
       ry="2.5562283e-17"
       transform="matrix(0.5890952,-0.80806364,0.48857568,0.87252152,0,0)"
       height="0.13176309" /><circle
       style="opacity:1;fill:none;fill-opacity:1;stroke:#b98847;stroke-width:0.88979;stroke-linecap:butt;stroke-linejoin:miter;stroke-miterlimit:4;stroke-dasharray:none;stroke-opacity:1;paint-order:normal"
       id="path1"
       cx="22.639868"
       cy="38.650242"
       r="11.867731" /></g></svg>
